<svg width="512" height="512" viewBox="0 0 64 64" fill="none" xmlns="http://www.w3.org/2000/svg" shape-rendering="crispEdges">
  <!-- Retro terminal icon tuned for 64px grid (scales cleanly to 192/512). -->
  <rect width="64" height="64" fill="#FFFFFF"/>
  <rect x="2" y="2" width="60" height="60" fill="#0000AA"/>

  <!-- Title bar -->
  <rect x="2" y="2" width="60" height="10" fill="#55FFFF"/>
  <rect x="2" y="12" width="60" height="1" fill="#FFFFFF"/>

  <!-- Menu glyph -->
  <rect x="4" y="4" width="6" height="1" fill="#0000AA"/>
  <rect x="4" y="6" width="6" height="1" fill="#0000AA"/>
  <rect x="4" y="8" width="6" height="1" fill="#0000AA"/>

  <!-- YKHN (5x7 pixel font) -->
  <g fill="#0000AA">
    <!-- Y -->
    <rect x="14" y="4" width="1" height="1"/>
    <rect x="18" y="4" width="1" height="1"/>
    <rect x="15" y="5" width="1" height="1"/>
    <rect x="17" y="5" width="1" height="1"/>
    <rect x="16" y="6" width="1" height="1"/>
    <rect x="16" y="7" width="1" height="1"/>
    <rect x="16" y="8" width="1" height="1"/>
    <rect x="16" y="9" width="1" height="1"/>
    <rect x="16" y="10" width="1" height="1"/>

    <!-- K -->
    <rect x="20" y="4" width="1" height="1"/>
    <rect x="24" y="4" width="1" height="1"/>
    <rect x="20" y="5" width="1" height="1"/>
    <rect x="23" y="5" width="1" height="1"/>
    <rect x="20" y="6" width="1" height="1"/>
    <rect x="22" y="6" width="1" height="1"/>
    <rect x="20" y="7" width="2" height="1"/>
    <rect x="20" y="8" width="1" height="1"/>
    <rect x="22" y="8" width="1" height="1"/>
    <rect x="20" y="9" width="1" height="1"/>
    <rect x="23" y="9" width="1" height="1"/>
    <rect x="20" y="10" width="1" height="1"/>
    <rect x="24" y="10" width="1" height="1"/>

    <!-- H -->
    <rect x="26" y="4" width="1" height="1"/>
    <rect x="30" y="4" width="1" height="1"/>
    <rect x="26" y="5" width="1" height="1"/>
    <rect x="30" y="5" width="1" height="1"/>
    <rect x="26" y="6" width="1" height="1"/>
    <rect x="30" y="6" width="1" height="1"/>
    <rect x="26" y="7" width="5" height="1"/>
    <rect x="26" y="8" width="1" height="1"/>
    <rect x="30" y="8" width="1" height="1"/>
    <rect x="26" y="9" width="1" height="1"/>
    <rect x="30" y="9" width="1" height="1"/>
    <rect x="26" y="10" width="1" height="1"/>
    <rect x="30" y="10" width="1" height="1"/>

    <!-- N -->
    <rect x="32" y="4" width="1" height="1"/>
    <rect x="36" y="4" width="1" height="1"/>
    <rect x="32" y="5" width="2" height="1"/>
    <rect x="35" y="5" width="1" height="1"/>
    <rect x="32" y="6" width="1" height="1"/>
    <rect x="34" y="6" width="1" height="1"/>
    <rect x="36" y="6" width="1" height="1"/>
    <rect x="32" y="7" width="1" height="1"/>
    <rect x="35" y="7" width="2" height="1"/>
    <rect x="32" y="8" width="1" height="1"/>
    <rect x="36" y="8" width="1" height="1"/>
    <rect x="32" y="9" width="1" height="1"/>
    <rect x="36" y="9" width="1" height="1"/>
    <rect x="32" y="10" width="1" height="1"/>
    <rect x="36" y="10" width="1" height="1"/>
  </g>

  <!-- Terminal content lines -->
  <g>
    <rect x="6" y="18" width="40" height="1" fill="#AAAAAA" fill-opacity="0.85"/>
    <rect x="6" y="21" width="34" height="1" fill="#AAAAAA" fill-opacity="0.75"/>
    <rect x="6" y="24" width="46" height="1" fill="#AAAAAA" fill-opacity="0.85"/>
    <rect x="6" y="27" width="28" height="1" fill="#AAAAAA" fill-opacity="0.7"/>
    <rect x="6" y="30" width="44" height="1" fill="#AAAAAA" fill-opacity="0.8"/>
  </g>

  <!-- Prompt + cursor -->
  <g fill="#FFFF55">
    <rect x="8" y="36" width="1" height="1"/>
    <rect x="9" y="37" width="1" height="1"/>
    <rect x="10" y="38" width="1" height="1"/>
    <rect x="9" y="39" width="1" height="1"/>
    <rect x="8" y="40" width="1" height="1"/>

    <rect x="12" y="40" width="6" height="1"/>
  </g>

  <!-- HN orange accent (nod to HN) -->
  <rect x="54" y="54" width="6" height="6" fill="#FF6600"/>
</svg>
